<?xml version="1.0" encoding="utf-8"?>
<!-- Generator: Adobe Illustrator 16.0.4, SVG Export Plug-In . SVG Version: 6.00 Build 0)  -->
<!DOCTYPE svg PUBLIC "-//W3C//DTD SVG 1.1//EN" "http://www.w3.org/Graphics/SVG/1.1/DTD/svg11.dtd">
<svg version="1.1" id="Layer_1" xmlns="http://www.w3.org/2000/svg" xmlns:xlink="http://www.w3.org/1999/xlink" x="0px" y="0px"
	 width="303.75px" height="217.5px" viewBox="0 0 303.75 217.5" enable-background="new 0 0 303.75 217.5" xml:space="preserve">
<g id="Layer_2">
</g>
<g id="Layer_3">
</g>
<g id="Layer_4">
	<polygon fill="#FFFFFF" stroke="#FFFFFF" stroke-linecap="round" stroke-linejoin="round" stroke-miterlimit="10" points="
		7.219,198.512 7.219,172.041 0,172.041 7.219,163.819 7.219,160.812 3.509,157.502 8.824,155.598 8.824,145.57 11.23,145.57 
		11.23,154.395 15.241,154.395 15.241,143.164 19.552,138.251 21.658,142.863 21.658,155.998 24.866,156.099 24.866,143.966 
		28.877,144.367 28.877,137.549 36.096,137.549 36.096,142.362 40.107,142.362 40.107,151.186 44.118,151.186 44.118,145.57 
		54.545,145.57 54.545,149.581 58.556,149.581 58.556,146.373 64.973,146.373 64.973,151.186 71.391,151.186 71.391,148.779 
		74.599,148.779 74.599,139.153 77.005,139.153 77.005,143.164 85.027,143.164 85.027,145.57 90.642,145.57 90.642,127.923 
		93.85,127.923 93.85,145.57 97.059,145.57 97.059,126.319 103.476,126.319 103.476,143.164 107.487,139.855 107.487,128.726 
		109.893,128.726 109.893,122.309 114.706,122.309 114.706,128.726 117.112,128.726 117.112,137.549 126.337,140.858 
		140.976,134.642 144.034,139.955 148.396,135.344 148.396,124.715 152.406,124.715 152.908,108.672 151.604,108.672 
		154.913,101.353 157.219,109.073 157.219,78.993 159.024,71.974 161.13,78.592 171.958,11.312 181.083,78.993 183.038,71.874 
		185.294,78.592 185.294,108.672 186.497,102.104 189.104,108.672 187.701,108.672 186.999,135.945 192.513,135.945 192.513,130.33 
		200.535,130.33 213.369,121.306 213.369,111.079 216.778,101.653 227.356,101.453 230.214,109.073 230.214,119.902 
		235.026,119.902 235.026,109.474 237.434,104.912 237.434,103.057 241.243,103.27 242.446,109.474 241.443,109.474 
		241.443,119.902 251.872,119.902 251.872,132.736 259.893,132.736 259.893,120.704 269.519,120.704 269.519,132.736 
		272.728,132.736 272.728,142.362 278.342,142.362 278.342,126.319 284.96,118.398 288.771,125.718 288.771,140.758 
		291.979,140.758 291.979,129.527 296.791,129.527 296.791,144.769 300,144.769 300,162.934 	"/>
</g>
<g id="svg">
</g>
</svg>
