<?xml version="1.0" encoding="utf-8"?>
<!-- Generator: Adobe Illustrator 15.1.0, SVG Export Plug-In  -->
<!DOCTYPE svg [
	<!ENTITY ns_flows "http://ns.adobe.com/Flows/1.0/">
]>
<svg version="1.2" baseProfile="tiny"
	 xmlns="http://www.w3.org/2000/svg" xmlns:xlink="http://www.w3.org/1999/xlink" xmlns:a="http://ns.adobe.com/AdobeSVGViewerExtensions/3.0/"
	 x="0px" y="0px" width="400px" viewBox="-31.667 -48.977 1004 662" overflow="visible" xml:space="preserve">
<defs>
</defs>
<polygon fill="#CCCCCC" points="153.475,136.58 171.534,127.027 193.948,124.034 248.303,163.439 279.72,160.945 335.083,166.433 
	354.036,154.961 363.013,154.461 391.942,132.016 433.344,150.295 488.212,190.023 496.692,190.023 505.671,199.677 
	532.605,195.275 535.599,191.828 565.028,196.838 587.974,194.854 598.448,187.377 611.915,186.881 644.837,168.713 
	650.822,159.023 662.046,159.023 678.755,152.503 683.245,146.498 707.687,143.996 725.144,132.02 742.104,136.008 747.092,129.521 
	776.022,146.979 797.472,158.951 811.937,158.451 847.351,161.943 867.304,178.404 887.255,182.893 935.562,479.989 
	619.896,521.183 7.457,485.601 "/>
<polygon fill="#808080" points="701.167,314.107 690.333,273.357 690.333,261.023 687.083,220.69 682.701,214.023 683.083,139.023 
	680.291,124.023 675.146,137.357 654.572,0 633.503,137.023 628.446,124.023 623.197,137.023 623.333,214.013 618.89,220.531 
	614.333,258.023 614.333,272.023 612.333,289.023 394.166,294.189 372.333,321.023 359.333,321.023 348.923,311.689 
	308.665,312.522 301.999,308.939 295.332,314.147 252.665,315.586 241.332,325.023 220.667,325.356 193.333,308.023 
	170.333,308.023 170.333,297.023 156.333,297.023 156.333,309.356 138,310.023 106,305.023 89.333,305.023 16.667,476.69 
	148.249,538.523 930.666,488.023 904,319.023 888,319.023 861.333,305.023 830,305.023 814.333,310.273 773.165,309.482 
	756.748,316.086 "/>
<polygon fill="#4D4D4D" points="197.333,329.356 222,318.69 254.999,319.356 268.565,327.922 285.249,329.19 284.667,320.023 
	294,320.023 294.667,329.023 323.333,329.023 337.333,349.44 348.923,332.023 362.333,332.023 362.333,328.023 371.333,328.023 
	371.333,332.023 398.333,332.689 398.333,328.023 410.333,328.023 410.333,334.023 419.333,334.023 424.375,339.023 
	443.333,339.023 454.667,320.898 465.333,335.023 470.333,335.023 470.333,324.023 475.333,324.023 475.333,334.023 482,326.023 
	509.333,326.023 518.667,314.023 549.333,314.023 549.333,306.023 556.333,306.023 556.333,314.023 582.333,314.023 
	587.499,321.189 656.333,318.689 656.333,312.023 660.333,312.023 660.333,317.023 719.5,319.356 745.75,343.689 758.833,336.023 
	787.333,336.023 796.166,326.523 814.333,325.356 814.333,319.023 823.333,319.023 823.333,325.69 835.502,325.823 849.75,336.023 
	864.541,336.398 875.666,324.023 899.333,324.023 928.666,490.522 294.833,567.044 148.748,538.533 0,503.445 64.667,336.567 
	100.667,324.023 140.667,324.023 165.5,330.064 185.333,328.69 185.333,319.023 197.333,319.023 "/>
<rect x="592.333" y="388.023" fill="#E6E6E6" width="6" height="13"/>
<rect x="605.333" y="388.023" fill="#E6E6E6" width="6" height="13"/>
<rect x="618.333" y="388.023" fill="#E6E6E6" width="6" height="13"/>
<rect x="592.333" y="409.023" fill="#E6E6E6" width="6" height="13"/>
<rect x="605.333" y="409.023" fill="#E6E6E6" width="6" height="13"/>
<rect x="534.333" y="384.023" fill="#E6E6E6" width="6" height="13"/>
<rect x="547.333" y="384.023" fill="#E6E6E6" width="6" height="13"/>
<rect x="534.333" y="405.023" fill="#E6E6E6" width="6" height="13"/>
<rect x="547.333" y="405.023" fill="#E6E6E6" width="6" height="13"/>
<rect x="618.333" y="409.023" fill="#E6E6E6" width="6" height="13"/>
<polygon fill="#E6E6E6" points="695.333,385.023 689.333,384.023 689.333,371.023 695.333,372.023 "/>
<polygon fill="#E6E6E6" points="708.333,387.023 702.333,386.023 702.333,373.023 708.333,374.023 "/>
<polygon fill="#E6E6E6" points="721.333,389.023 715.333,388.023 715.333,375.023 721.333,376.023 "/>
<polygon fill="#E6E6E6" points="695.333,406.023 689.333,405.023 689.333,392.023 695.333,393.023 "/>
<polygon fill="#E6E6E6" points="708.333,408.023 702.333,407.023 702.333,394.023 708.333,395.023 "/>
<polygon fill="#E6E6E6" points="721.333,410.023 715.333,409.023 715.333,396.023 721.333,397.023 "/>
<rect x="362.333" y="366.023" fill="#E6E6E6" width="6" height="13"/>
<rect x="375.333" y="366.023" fill="#E6E6E6" width="6" height="13"/>
<rect x="388.333" y="366.023" fill="#E6E6E6" width="6" height="13"/>
<rect x="362.333" y="387.023" fill="#E6E6E6" width="6" height="13"/>
<rect x="375.333" y="387.023" fill="#E6E6E6" width="6" height="13"/>
<rect x="388.333" y="387.023" fill="#E6E6E6" width="6" height="13"/>
<rect x="219.333" y="378.023" fill="#E6E6E6" width="6" height="13"/>
<rect x="232.333" y="378.023" fill="#E6E6E6" width="6" height="13"/>
<rect x="245.333" y="378.023" fill="#E6E6E6" width="6" height="13"/>
<rect x="219.333" y="399.023" fill="#E6E6E6" width="6" height="13"/>
<rect x="232.333" y="399.023" fill="#E6E6E6" width="6" height="13"/>
<rect x="245.333" y="399.023" fill="#E6E6E6" width="6" height="13"/>
<rect x="258.333" y="378.023" fill="#E6E6E6" width="6" height="13"/>
<rect x="258.333" y="399.023" fill="#E6E6E6" width="6" height="13"/>
</svg>
